<svg id="svg" version="1.1" xmlns="http://www.w3.org/2000/svg" xmlns:xlink="http://www.w3.org/1999/xlink" width="400" height="139.33333333333334" viewBox="0, 0, 400,139.33333333333334"><g id="svgg"><path id="path0" d="M42.497 38.087 C 42.164 38.488,42.434 38.566,42.819 38.181 C 43.057 37.943,43.094 37.833,42.937 37.833 C 42.811 37.833,42.613 37.948,42.497 38.087 M226.667 49.833 C 226.667 49.925,226.259 50.000,225.760 50.000 C 225.261 50.000,224.807 50.075,224.750 50.167 C 224.693 50.258,224.431 50.333,224.167 50.333 C 223.902 50.333,223.640 50.408,223.583 50.500 C 223.527 50.592,223.334 50.667,223.155 50.667 C 222.975 50.667,222.699 50.732,222.539 50.812 C 219.729 52.223,219.861 52.132,218.250 53.758 C 216.007 56.021,215.131 58.509,215.251 62.274 C 215.338 64.989,215.696 66.178,217.037 68.199 C 218.056 69.736,221.060 72.333,221.818 72.333 C 221.918 72.333,222.001 72.390,222.001 72.458 C 222.003 72.608,222.810 73.000,223.117 73.000 C 223.236 73.000,223.333 73.057,223.333 73.126 C 223.333 73.195,223.577 73.353,223.875 73.476 C 224.173 73.600,224.792 73.872,225.250 74.082 C 225.708 74.292,226.383 74.593,226.750 74.750 C 232.205 77.087,233.918 79.210,232.917 82.393 C 232.416 83.985,230.414 85.667,229.019 85.667 C 228.770 85.667,228.487 85.746,228.390 85.843 C 228.066 86.167,222.646 85.849,222.258 85.483 C 222.171 85.401,221.894 85.333,221.643 85.333 C 221.392 85.333,221.140 85.258,221.083 85.167 C 221.027 85.075,220.869 85.000,220.732 85.000 C 220.596 85.000,220.173 84.850,219.794 84.667 C 219.415 84.483,219.006 84.333,218.885 84.333 C 218.765 84.333,218.667 84.258,218.667 84.167 C 218.667 84.075,218.517 84.000,218.333 84.000 C 218.150 84.000,218.000 83.925,218.000 83.833 C 218.000 83.742,217.928 83.667,217.841 83.667 C 217.753 83.667,217.300 83.442,216.833 83.167 C 215.235 82.224,214.802 82.545,214.491 84.900 C 213.970 88.844,215.194 90.629,219.250 91.842 C 219.617 91.951,220.047 92.107,220.206 92.187 C 220.365 92.268,220.755 92.333,221.071 92.333 C 221.388 92.333,221.693 92.408,221.750 92.500 C 221.807 92.592,222.219 92.667,222.667 92.667 C 223.114 92.667,223.527 92.742,223.583 92.833 C 223.645 92.933,224.748 93.000,226.333 93.000 C 227.918 93.000,229.022 92.933,229.083 92.833 C 229.140 92.742,229.590 92.667,230.083 92.667 C 230.577 92.667,231.027 92.592,231.083 92.500 C 231.140 92.408,231.444 92.333,231.760 92.333 C 232.075 92.333,232.333 92.258,232.333 92.167 C 232.333 92.075,232.522 92.000,232.752 92.000 C 232.983 92.000,233.301 91.932,233.461 91.848 C 233.620 91.764,234.162 91.501,234.667 91.264 C 237.315 90.016,239.557 87.902,240.627 85.643 C 241.247 84.334,241.381 83.921,241.823 81.968 C 242.047 80.980,242.052 78.491,241.833 77.644 C 241.742 77.290,241.588 76.681,241.491 76.292 C 240.599 72.683,237.210 69.714,231.083 67.172 C 226.046 65.082,224.259 63.678,223.813 61.459 C 223.391 59.359,225.232 56.667,227.089 56.667 C 227.304 56.667,227.527 56.592,227.583 56.500 C 227.642 56.405,228.498 56.333,229.583 56.333 C 230.668 56.333,231.524 56.405,231.583 56.500 C 231.640 56.592,231.945 56.667,232.262 56.667 C 232.579 56.667,232.968 56.732,233.127 56.813 C 233.286 56.893,233.717 57.048,234.083 57.157 C 234.959 57.417,235.161 57.503,236.833 58.315 C 239.232 59.480,239.417 59.284,239.417 55.574 C 239.417 52.360,239.153 51.861,237.083 51.158 C 236.717 51.034,236.345 50.872,236.258 50.799 C 236.171 50.726,235.932 50.667,235.727 50.667 C 235.521 50.667,235.307 50.592,235.250 50.500 C 235.193 50.408,234.893 50.333,234.583 50.333 C 234.273 50.333,233.973 50.258,233.917 50.167 C 233.860 50.075,233.410 50.000,232.917 50.000 C 232.423 50.000,231.973 49.925,231.917 49.833 C 231.855 49.734,230.776 49.667,229.240 49.667 C 227.636 49.667,226.667 49.729,226.667 49.833 M146.000 50.157 C 145.862 50.233,145.540 50.393,145.284 50.513 C 144.680 50.796,144.521 51.162,142.830 56.167 C 142.474 57.221,141.801 59.171,141.335 60.500 C 140.868 61.829,140.224 63.704,139.904 64.667 C 139.583 65.629,139.252 66.567,139.169 66.750 C 139.021 67.077,138.056 69.881,136.904 73.333 C 136.583 74.296,136.251 75.233,136.167 75.417 C 136.082 75.600,135.750 76.537,135.429 77.500 C 134.277 80.953,133.313 83.756,133.164 84.083 C 133.081 84.267,132.750 85.204,132.429 86.167 C 132.108 87.129,131.652 88.477,131.415 89.163 C 130.826 90.871,130.882 91.940,131.583 92.350 C 132.131 92.670,137.385 92.820,137.570 92.522 C 137.619 92.442,137.882 92.332,138.154 92.278 C 138.835 92.141,139.036 91.646,141.173 84.833 C 141.475 83.871,141.795 82.989,141.883 82.873 C 142.009 82.709,143.737 82.673,149.897 82.707 L 157.750 82.750 159.257 87.275 C 160.852 92.061,160.978 92.333,161.604 92.333 C 161.822 92.333,162.000 92.408,162.000 92.500 C 162.000 92.605,163.158 92.667,165.141 92.667 C 170.081 92.667,170.180 92.544,168.679 88.250 C 168.390 87.425,167.892 85.962,167.571 85.000 C 167.250 84.037,166.920 83.100,166.837 82.917 C 166.674 82.555,165.827 80.109,164.903 77.333 C 164.583 76.371,164.251 75.433,164.167 75.250 C 164.082 75.067,163.750 74.129,163.430 73.167 C 163.109 72.204,162.465 70.329,161.998 69.000 C 161.531 67.671,160.932 65.946,160.667 65.167 C 160.401 64.387,159.801 62.663,159.333 61.333 C 158.866 60.004,158.266 58.279,158.000 57.500 C 155.724 50.824,155.610 50.564,154.873 50.409 C 154.622 50.356,154.286 50.243,154.127 50.157 C 153.773 49.965,146.349 49.965,146.000 50.157 M176.231 50.651 C 175.946 50.825,175.552 51.192,175.356 51.468 L 175.000 51.968 175.000 71.343 L 175.000 90.719 175.425 91.276 C 176.248 92.355,176.070 92.333,184.065 92.333 C 188.718 92.333,191.351 92.274,191.417 92.167 C 191.473 92.075,192.078 92.000,192.760 92.000 C 193.476 92.000,194.000 91.930,194.000 91.833 C 194.000 91.742,194.375 91.667,194.833 91.667 C 195.292 91.667,195.667 91.592,195.667 91.500 C 195.667 91.408,195.925 91.333,196.240 91.333 C 196.556 91.333,196.860 91.258,196.917 91.167 C 196.973 91.075,197.240 91.000,197.510 91.000 C 197.779 91.000,198.000 90.925,198.000 90.833 C 198.000 90.742,198.183 90.667,198.407 90.667 C 198.631 90.667,198.860 90.592,198.917 90.500 C 198.973 90.408,199.159 90.333,199.329 90.333 C 199.500 90.333,199.664 90.277,199.694 90.208 C 199.725 90.140,200.237 89.828,200.833 89.517 C 205.020 87.326,207.757 83.436,209.170 77.667 C 209.998 74.287,209.996 67.527,209.167 64.333 C 207.590 58.263,204.336 54.338,199.083 52.168 C 198.808 52.054,198.453 51.895,198.294 51.814 C 198.135 51.733,197.858 51.667,197.679 51.667 C 197.500 51.667,197.307 51.592,197.250 51.500 C 197.193 51.408,196.941 51.333,196.690 51.333 C 196.439 51.333,196.162 51.266,196.075 51.184 C 195.887 51.006,194.873 50.844,193.208 50.726 C 192.544 50.679,192.000 50.571,192.000 50.487 C 192.000 50.142,176.806 50.300,176.231 50.651 M249.961 50.609 C 249.710 50.741,249.316 51.096,249.086 51.399 L 248.667 51.948 248.667 71.333 L 248.667 90.719 249.082 91.263 C 249.912 92.352,249.757 92.333,258.099 92.333 C 262.951 92.333,265.684 92.274,265.750 92.167 C 265.807 92.075,266.336 92.000,266.927 92.000 C 267.531 92.000,268.000 91.927,268.000 91.833 C 268.000 91.742,268.296 91.667,268.657 91.667 C 269.018 91.667,269.360 91.592,269.417 91.500 C 269.473 91.408,269.698 91.333,269.917 91.333 C 270.135 91.333,270.360 91.258,270.417 91.167 C 270.473 91.075,270.652 91.000,270.814 91.000 C 271.529 91.000,274.492 89.275,275.583 88.224 C 280.238 83.740,280.149 75.329,275.409 71.827 C 274.676 71.286,274.209 71.019,272.461 70.145 C 272.301 70.065,271.983 70.000,271.752 70.000 C 271.444 70.000,271.333 69.912,271.333 69.667 C 271.333 69.483,271.412 69.333,271.509 69.333 C 271.606 69.333,272.121 69.037,272.654 68.675 C 278.364 64.798,277.622 55.187,271.381 52.177 C 270.759 51.877,270.120 51.565,269.961 51.482 C 269.801 51.400,269.525 51.333,269.345 51.333 C 269.166 51.333,268.978 51.266,268.928 51.184 C 268.827 51.022,267.971 50.866,266.417 50.728 C 265.867 50.679,265.345 50.570,265.258 50.486 C 264.973 50.210,250.496 50.327,249.961 50.609 M263.750 56.833 C 263.807 56.925,264.111 57.000,264.427 57.000 C 264.742 57.000,265.000 57.075,265.000 57.167 C 265.000 57.258,265.139 57.333,265.310 57.333 C 266.986 57.333,268.542 61.265,267.844 63.736 C 267.343 65.507,265.558 67.333,264.327 67.333 C 264.158 67.333,263.973 67.408,263.917 67.500 C 263.853 67.602,262.498 67.667,260.407 67.667 L 257.000 67.667 257.000 62.167 L 257.000 56.667 260.323 56.667 C 262.359 56.667,263.687 56.731,263.750 56.833 M190.750 57.167 C 190.807 57.258,191.125 57.333,191.456 57.333 C 192.244 57.333,193.249 57.644,194.750 58.350 C 197.538 59.663,199.706 62.497,200.474 65.833 C 200.568 66.246,200.730 66.951,200.832 67.400 C 201.248 69.230,201.036 74.587,200.462 76.750 C 199.437 80.613,197.013 83.703,194.357 84.532 C 193.977 84.651,193.667 84.805,193.667 84.874 C 193.667 84.943,193.446 85.000,193.177 85.000 C 192.907 85.000,192.640 85.075,192.583 85.167 C 192.527 85.258,192.125 85.333,191.690 85.333 C 191.256 85.333,190.823 85.410,190.730 85.503 C 190.622 85.611,189.256 85.657,186.988 85.628 L 183.417 85.583 183.374 71.500 C 183.350 63.754,183.366 57.323,183.410 57.208 C 183.511 56.944,190.588 56.904,190.750 57.167 M150.987 61.628 C 151.575 63.437,152.869 67.373,153.862 70.375 C 154.854 73.377,155.667 75.871,155.667 75.917 C 155.667 76.054,144.026 76.011,143.941 75.873 C 143.898 75.804,144.494 73.835,145.265 71.498 C 146.036 69.162,147.269 65.412,148.006 63.167 C 149.328 59.135,149.630 58.331,149.820 58.336 C 149.873 58.338,150.398 59.819,150.987 61.628 M296.917 60.500 C 296.860 60.592,296.448 60.667,296.000 60.667 C 295.552 60.667,295.140 60.742,295.083 60.833 C 295.027 60.925,294.727 61.000,294.417 61.000 C 294.107 61.000,293.807 61.075,293.750 61.167 C 293.693 61.258,293.534 61.333,293.396 61.333 C 291.945 61.333,288.041 64.284,286.561 66.500 C 281.681 73.803,283.442 87.152,289.750 90.679 C 290.624 91.167,291.667 91.684,292.083 91.835 C 292.267 91.901,292.604 92.035,292.833 92.132 C 293.390 92.367,294.076 92.515,295.083 92.615 C 295.542 92.660,295.988 92.765,296.075 92.849 C 296.295 93.059,301.620 93.044,301.750 92.833 C 301.807 92.742,302.261 92.667,302.760 92.667 C 303.259 92.667,303.667 92.592,303.667 92.500 C 303.667 92.408,303.925 92.333,304.240 92.333 C 304.556 92.333,304.860 92.258,304.917 92.167 C 304.973 92.075,305.132 92.000,305.270 92.000 C 306.127 92.000,309.309 90.053,310.594 88.743 C 316.677 82.540,316.292 68.154,309.912 63.292 C 308.938 62.549,306.611 61.333,306.164 61.333 C 305.993 61.333,305.807 61.258,305.750 61.167 C 305.693 61.075,305.431 61.000,305.167 61.000 C 304.902 61.000,304.640 60.925,304.583 60.833 C 304.527 60.742,304.077 60.667,303.583 60.667 C 303.090 60.667,302.640 60.592,302.583 60.500 C 302.521 60.400,301.390 60.333,299.750 60.333 C 298.110 60.333,296.979 60.400,296.917 60.500 M320.417 60.833 C 320.360 60.925,320.142 61.000,319.933 61.000 C 319.534 61.000,319.000 61.465,319.000 61.812 C 319.000 61.993,320.157 64.262,321.044 65.821 C 321.231 66.148,321.643 66.904,321.961 67.500 C 322.279 68.096,322.730 68.921,322.963 69.333 C 323.196 69.746,323.688 70.646,324.056 71.333 C 324.424 72.021,324.898 72.883,325.109 73.250 C 325.321 73.617,325.775 74.461,326.120 75.127 L 326.747 76.337 326.336 77.127 C 326.110 77.561,325.884 77.954,325.833 78.000 C 325.783 78.046,325.487 78.571,325.175 79.167 C 324.863 79.762,324.459 80.512,324.276 80.833 C 324.093 81.154,323.669 81.904,323.333 82.500 C 322.998 83.096,322.573 83.846,322.391 84.167 C 322.208 84.487,321.803 85.237,321.491 85.833 C 321.180 86.429,320.884 86.954,320.833 87.000 C 320.783 87.046,320.487 87.571,320.176 88.167 C 319.361 89.727,319.260 89.907,319.158 90.000 C 318.596 90.509,318.379 91.955,318.833 92.165 C 318.971 92.229,319.251 92.368,319.456 92.474 C 319.929 92.718,325.267 92.742,325.417 92.500 C 325.473 92.408,325.671 92.333,325.855 92.333 C 326.364 92.333,326.632 91.976,327.736 89.826 C 328.293 88.739,329.500 86.383,330.417 84.591 C 332.243 81.021,332.287 80.977,332.878 82.125 C 333.102 82.560,333.907 84.117,334.666 85.583 C 335.425 87.050,336.445 89.029,336.934 89.981 C 337.955 91.970,338.238 92.333,338.766 92.333 C 338.976 92.333,339.193 92.408,339.250 92.500 C 339.313 92.602,340.585 92.667,342.510 92.667 C 344.503 92.667,345.667 92.605,345.667 92.500 C 345.667 92.408,345.843 92.333,346.058 92.333 C 347.307 92.333,347.119 91.495,345.032 87.750 C 344.776 87.292,344.300 86.429,343.974 85.833 C 342.109 82.425,341.599 81.487,340.668 79.750 C 340.324 79.108,339.883 78.302,339.688 77.958 C 339.493 77.615,339.179 77.060,338.989 76.726 L 338.646 76.119 339.185 75.101 C 339.482 74.541,339.873 73.821,340.054 73.500 C 340.235 73.179,340.607 72.504,340.881 72.000 C 341.155 71.496,341.604 70.671,341.880 70.167 C 342.155 69.662,342.641 68.762,342.959 68.167 C 343.278 67.571,343.730 66.746,343.963 66.333 C 346.327 62.156,346.560 61.459,345.750 60.984 C 345.174 60.647,339.947 60.515,339.750 60.833 C 339.693 60.925,339.514 61.000,339.353 61.000 C 338.937 61.000,338.491 61.557,337.752 63.000 C 337.400 63.688,336.851 64.737,336.532 65.333 C 336.212 65.929,335.499 67.279,334.947 68.333 C 332.978 72.092,333.455 72.109,331.400 68.208 C 330.905 67.269,330.074 65.694,329.553 64.708 C 329.032 63.723,328.461 62.617,328.284 62.250 C 327.839 61.330,327.515 61.000,327.058 61.000 C 326.843 61.000,326.667 60.925,326.667 60.833 C 326.667 60.728,325.531 60.667,323.593 60.667 C 321.724 60.667,320.479 60.732,320.417 60.833 M301.250 66.833 C 301.307 66.925,301.534 67.000,301.755 67.000 C 302.480 67.000,304.833 68.664,304.833 69.176 C 304.833 69.250,304.931 69.409,305.049 69.530 C 305.627 70.118,306.240 72.332,306.496 74.750 C 307.093 80.385,304.638 86.000,301.577 86.000 C 301.362 86.000,301.140 86.075,301.083 86.167 C 301.025 86.260,300.224 86.333,299.250 86.333 C 298.276 86.333,297.475 86.260,297.417 86.167 C 297.360 86.075,297.138 86.000,296.923 86.000 C 294.154 86.000,292.270 82.188,292.270 76.583 C 292.270 71.259,293.742 67.988,296.500 67.186 C 296.912 67.066,297.362 66.904,297.500 66.827 C 297.857 66.626,301.125 66.632,301.250 66.833 M264.750 74.167 C 264.807 74.258,265.112 74.333,265.429 74.333 C 265.745 74.333,266.135 74.400,266.294 74.482 C 266.453 74.563,266.947 74.804,267.391 75.016 C 271.136 76.806,271.152 83.109,267.417 84.811 C 267.142 84.936,266.786 85.105,266.627 85.186 C 266.468 85.267,266.154 85.333,265.929 85.333 C 265.704 85.333,265.473 85.408,265.417 85.500 C 265.352 85.604,263.748 85.667,261.157 85.667 L 257.000 85.667 257.000 79.833 L 257.000 74.000 260.823 74.000 C 263.193 74.000,264.686 74.063,264.750 74.167 M83.924 95.655 C 83.801 95.855,84.114 96.052,84.336 95.915 C 84.522 95.800,84.400 95.500,84.167 95.500 C 84.086 95.500,83.977 95.570,83.924 95.655 " stroke="none" fill="#066353" fill-rule="evenodd"></path><path id="path1" d="M0.000 69.667 L 0.000 139.333 200.000 139.333 L 400.000 139.333 400.000 69.667 L 400.000 0.000 200.000 0.000 L 0.000 0.000 0.000 69.667 M43.688 37.625 C 43.907 37.785,44.236 38.005,44.419 38.113 C 45.078 38.505,51.467 42.552,53.583 43.919 C 54.775 44.688,56.087 45.522,56.500 45.772 C 56.913 46.022,58.188 46.835,59.333 47.579 C 60.479 48.323,61.656 49.078,61.949 49.257 C 62.242 49.437,62.825 49.794,63.245 50.051 C 64.181 50.625,64.174 50.626,66.497 49.116 C 67.511 48.456,69.169 47.392,70.181 46.750 C 71.193 46.108,72.372 45.357,72.802 45.081 C 73.232 44.804,74.071 44.270,74.667 43.892 C 75.262 43.515,76.837 42.509,78.167 41.657 C 82.875 38.639,85.032 37.333,85.313 37.333 C 85.588 37.333,86.749 38.041,90.807 40.681 C 91.876 41.376,93.800 42.605,95.083 43.412 C 96.367 44.219,97.954 45.225,98.611 45.648 C 101.066 47.229,102.416 48.093,102.936 48.417 C 106.121 50.398,106.325 50.549,106.331 50.923 C 106.333 51.074,104.625 52.333,104.417 52.333 C 104.374 52.333,103.629 52.802,102.762 53.375 C 101.272 54.359,98.574 56.080,95.000 58.325 C 94.129 58.872,93.192 59.477,92.917 59.668 C 92.642 59.860,91.217 60.771,89.750 61.691 C 85.136 64.587,85.430 64.213,86.999 65.190 C 87.639 65.590,89.198 66.592,90.462 67.417 C 91.726 68.242,93.471 69.362,94.339 69.907 C 104.184 76.088,106.333 77.496,106.333 77.766 C 106.333 78.085,105.819 78.435,99.333 82.520 C 98.279 83.184,96.704 84.191,95.833 84.757 C 94.962 85.323,93.425 86.297,92.417 86.922 C 91.408 87.547,89.908 88.506,89.083 89.053 C 85.028 91.741,85.516 91.645,83.253 90.208 C 82.279 89.590,80.679 88.578,79.699 87.959 C 78.719 87.341,77.317 86.448,76.583 85.975 C 75.850 85.502,74.875 84.875,74.417 84.582 C 73.958 84.289,73.058 83.712,72.417 83.299 C 68.221 80.599,64.225 78.112,64.083 78.113 C 63.945 78.114,60.365 80.347,56.917 82.583 C 55.374 83.583,53.012 85.082,52.713 85.250 C 52.550 85.342,52.004 85.687,51.500 86.018 C 50.996 86.349,49.608 87.243,48.417 88.003 C 47.225 88.764,45.555 89.833,44.706 90.379 C 42.884 91.549,43.103 91.571,40.587 89.977 C 39.521 89.302,38.354 88.563,37.992 88.333 C 37.248 87.862,32.918 85.100,32.433 84.788 C 28.800 82.447,25.464 80.333,25.402 80.333 C 25.137 80.333,21.833 77.951,21.833 77.760 C 21.833 77.544,22.502 77.091,27.417 73.983 C 28.425 73.346,30.000 72.341,30.917 71.751 C 31.833 71.161,34.756 69.297,37.411 67.608 C 40.066 65.919,42.261 64.467,42.289 64.382 C 42.339 64.232,41.549 63.654,39.667 62.467 C 38.785 61.911,38.434 61.687,35.667 59.917 C 34.979 59.477,34.127 58.925,33.773 58.690 C 33.419 58.455,32.991 58.184,32.822 58.089 C 32.322 57.809,26.729 54.238,24.833 52.989 C 23.871 52.355,22.843 51.711,22.549 51.558 C 21.581 51.052,21.646 50.626,22.794 49.951 C 23.228 49.696,24.008 49.209,24.526 48.868 C 25.045 48.528,26.282 47.737,27.276 47.109 C 32.106 44.059,33.363 43.260,34.750 42.355 C 42.388 37.374,42.942 37.081,43.688 37.625 M231.925 49.651 C 232.012 49.735,232.458 49.840,232.917 49.885 C 233.375 49.931,234.088 50.055,234.500 50.161 C 234.912 50.267,235.450 50.394,235.694 50.444 C 236.673 50.642,238.913 51.912,239.292 52.483 C 239.800 53.250,239.858 57.374,239.375 58.321 C 238.870 59.309,238.711 59.316,236.846 58.439 C 229.740 55.097,224.000 56.130,224.000 60.751 C 224.000 63.375,225.964 65.026,231.833 67.337 C 237.528 69.579,241.093 73.050,241.926 77.163 C 244.198 88.380,232.560 96.123,219.500 92.084 C 215.326 90.793,214.324 89.628,214.346 86.095 C 214.370 82.266,214.782 81.963,217.820 83.546 C 225.473 87.530,233.005 86.232,232.999 80.929 C 232.996 78.361,230.893 76.465,225.840 74.477 C 225.092 74.182,221.587 72.435,220.833 71.981 C 212.033 66.676,213.506 53.445,223.227 50.473 C 224.551 50.068,225.553 49.833,225.966 49.831 C 226.214 49.829,226.529 49.756,226.667 49.667 C 226.983 49.462,231.712 49.448,231.925 49.651 M154.405 50.086 C 155.328 50.366,155.793 50.721,156.040 51.333 C 156.279 51.927,157.585 55.618,158.252 57.583 C 158.563 58.500,159.276 60.563,159.836 62.167 C 160.397 63.771,161.034 65.608,161.253 66.250 C 161.471 66.892,161.994 68.392,162.416 69.583 C 162.837 70.775,163.750 73.400,164.446 75.417 C 165.141 77.433,166.039 80.021,166.441 81.167 C 166.844 82.313,167.393 83.887,167.661 84.667 C 167.929 85.446,168.375 86.705,168.651 87.465 C 170.499 92.552,170.311 92.841,165.161 92.823 C 162.516 92.815,162.181 92.780,161.500 92.448 L 160.750 92.083 159.187 87.458 L 157.624 82.833 149.845 82.833 L 142.066 82.833 141.537 84.458 C 141.246 85.352,140.589 87.375,140.077 88.955 C 139.122 91.899,138.768 92.500,137.987 92.500 C 137.822 92.500,137.640 92.575,137.583 92.667 C 137.367 93.017,132.396 92.872,131.653 92.493 C 130.237 91.771,129.890 93.128,135.999 75.500 C 138.683 67.754,141.121 60.704,141.416 59.833 C 144.557 50.581,144.562 50.571,145.774 50.144 C 146.892 49.751,153.159 49.708,154.405 50.086 M193.167 50.473 C 193.854 50.573,194.792 50.737,195.250 50.837 C 195.708 50.937,196.328 51.060,196.627 51.111 C 196.925 51.162,197.211 51.270,197.261 51.352 C 197.312 51.433,197.500 51.500,197.679 51.500 C 197.859 51.500,198.700 51.825,199.550 52.222 C 207.007 55.706,210.217 61.787,209.949 71.917 C 209.681 82.016,205.527 88.606,197.917 91.003 C 197.550 91.118,197.100 91.272,196.917 91.344 C 196.333 91.573,194.338 91.966,192.583 92.198 C 191.847 92.295,187.964 92.383,183.917 92.395 L 176.583 92.417 175.976 92.006 C 174.836 91.234,174.921 92.809,174.870 71.667 C 174.817 49.418,174.668 51.359,176.500 50.386 C 177.021 50.110,191.187 50.184,193.167 50.473 M266.250 50.466 C 272.926 51.450,276.382 54.729,276.624 60.307 C 276.797 64.301,275.576 66.972,272.748 68.789 C 271.256 69.747,271.268 69.690,272.489 70.053 C 280.227 72.350,281.635 83.944,274.799 89.083 C 273.526 90.040,272.269 90.688,270.549 91.273 C 267.490 92.314,266.614 92.393,257.917 92.406 L 250.250 92.417 249.643 92.006 C 248.503 91.234,248.588 92.783,248.534 71.917 C 248.476 49.545,248.354 51.277,250.045 50.438 C 250.676 50.125,264.095 50.148,266.250 50.466 M62.287 52.210 C 61.391 52.782,60.079 53.620,59.371 54.072 C 58.663 54.524,57.258 55.416,56.250 56.054 C 55.242 56.692,53.929 57.532,53.333 57.921 C 52.737 58.309,51.050 59.379,49.583 60.298 C 45.150 63.076,43.670 64.073,43.668 64.283 C 43.666 64.536,44.218 64.938,46.962 66.679 C 48.178 67.452,49.851 68.515,50.678 69.042 C 51.506 69.569,52.225 70.000,52.275 70.000 C 52.325 70.000,53.260 70.600,54.354 71.333 C 55.447 72.067,56.372 72.667,56.410 72.667 C 56.448 72.667,57.076 73.060,57.807 73.542 C 60.208 75.124,63.535 77.247,63.851 77.399 C 64.147 77.542,64.715 77.231,67.000 75.677 C 67.229 75.522,67.529 75.345,67.667 75.284 C 67.804 75.224,69.679 74.037,71.833 72.647 C 73.987 71.257,76.912 69.388,78.333 68.496 C 83.138 65.476,83.791 65.058,84.271 64.698 L 84.750 64.337 84.333 63.997 C 84.104 63.810,83.429 63.354,82.833 62.984 C 82.237 62.614,81.320 62.035,80.795 61.697 C 80.270 61.360,79.032 60.577,78.045 59.958 C 77.058 59.339,75.110 58.101,73.716 57.208 C 72.323 56.314,70.073 54.877,68.716 54.013 C 67.360 53.149,65.804 52.155,65.259 51.804 C 64.018 51.007,64.216 50.980,62.287 52.210 M257.167 62.167 L 257.167 67.500 260.292 67.498 C 265.646 67.495,267.382 66.425,267.816 62.859 C 268.348 58.476,266.281 56.839,260.208 56.835 L 257.167 56.833 257.167 62.167 M183.667 71.336 L 183.667 85.518 187.292 85.446 C 192.470 85.343,194.097 84.941,196.385 83.202 C 202.535 78.525,202.577 64.178,196.455 59.576 C 193.959 57.700,192.453 57.316,187.208 57.219 L 183.667 57.154 183.667 71.336 M148.084 63.616 C 147.186 66.348,145.910 70.215,145.247 72.208 L 144.041 75.833 149.788 75.833 C 154.317 75.833,155.519 75.789,155.457 75.625 C 155.365 75.384,152.448 66.534,150.966 62.000 C 150.412 60.304,149.904 58.856,149.837 58.783 C 149.770 58.709,148.981 60.884,148.084 63.616 M303.417 60.458 C 309.451 61.463,313.353 65.197,314.590 71.150 C 316.194 78.866,314.090 86.548,309.430 89.990 C 303.802 94.148,294.282 94.240,288.833 90.189 C 282.211 85.267,281.777 70.731,288.064 64.444 C 289.510 62.997,292.150 61.438,293.756 61.081 C 294.028 61.021,294.533 60.865,294.878 60.736 C 295.224 60.606,295.786 60.499,296.128 60.497 C 296.470 60.496,296.857 60.427,296.989 60.344 C 297.292 60.152,302.091 60.237,303.417 60.458 M327.167 60.882 C 327.977 61.280,328.345 61.889,331.769 68.500 C 332.457 69.829,333.079 70.976,333.149 71.048 C 333.266 71.166,334.050 69.761,336.665 64.750 C 338.455 61.320,338.614 61.097,339.496 60.784 C 340.655 60.372,344.723 60.377,345.619 60.792 C 346.839 61.356,346.805 61.518,344.642 65.485 C 343.713 67.189,342.692 69.071,342.373 69.667 C 342.053 70.262,341.617 71.058,341.404 71.434 C 338.728 76.138,338.767 75.972,339.900 77.982 C 340.293 78.679,341.104 80.150,341.703 81.250 C 342.301 82.350,343.732 84.976,344.882 87.085 C 347.114 91.178,347.287 91.592,346.946 92.032 C 346.114 93.106,339.310 93.185,338.046 92.135 C 337.843 91.967,336.732 89.894,334.001 84.583 C 333.247 83.117,332.544 81.826,332.440 81.715 C 332.295 81.561,331.593 82.775,329.500 86.798 C 326.164 93.210,326.709 92.725,322.750 92.802 C 318.004 92.893,317.623 92.471,319.466 89.167 C 320.003 88.204,320.692 86.967,320.996 86.417 C 321.300 85.867,322.072 84.479,322.711 83.333 C 323.350 82.188,324.138 80.762,324.461 80.167 C 324.784 79.571,325.102 79.008,325.167 78.917 C 325.477 78.479,326.500 76.489,326.500 76.322 C 326.500 76.218,325.965 75.147,325.311 73.942 C 324.656 72.736,323.858 71.262,323.536 70.667 C 323.214 70.071,322.662 69.083,322.309 68.471 C 321.956 67.859,321.667 67.322,321.667 67.278 C 321.667 67.233,321.378 66.684,321.026 66.057 C 318.565 61.681,318.498 61.367,319.917 60.799 C 321.061 60.341,326.184 60.400,327.167 60.882 M297.417 67.033 C 293.753 68.234,292.173 71.470,292.385 77.333 C 292.639 84.347,296.248 87.599,301.791 85.808 C 305.423 84.635,307.341 78.744,306.082 72.636 C 305.176 68.240,301.326 65.751,297.417 67.033 M257.167 79.833 L 257.167 85.511 261.292 85.455 C 265.512 85.398,266.060 85.327,267.387 84.663 C 271.006 82.856,270.904 76.864,267.225 75.064 C 265.838 74.385,265.113 74.287,260.958 74.218 L 257.167 74.155 257.167 79.833 M65.981 83.318 C 68.668 84.957,70.677 86.231,75.333 89.248 C 76.204 89.812,77.779 90.815,78.833 91.477 C 84.061 94.760,85.083 95.458,85.083 95.747 C 85.083 96.003,82.748 97.705,81.833 98.116 C 81.696 98.178,81.171 98.505,80.667 98.843 C 80.162 99.181,78.737 100.093,77.500 100.870 C 76.262 101.647,74.275 102.906,73.083 103.668 C 68.813 106.399,64.108 109.333,64.000 109.333 C 63.939 109.333,62.583 108.498,60.986 107.477 C 59.390 106.456,57.671 105.363,57.167 105.049 C 55.006 103.701,47.746 99.075,44.875 97.217 C 42.570 95.725,42.565 95.693,44.454 94.500 C 45.252 93.996,46.566 93.152,47.374 92.625 C 48.182 92.098,48.867 91.667,48.897 91.667 C 48.926 91.667,49.468 91.323,50.100 90.903 C 50.733 90.483,51.400 90.069,51.583 89.983 C 51.767 89.897,52.704 89.310,53.667 88.678 C 55.377 87.555,56.313 86.959,61.414 83.738 C 62.788 82.871,64.017 82.202,64.146 82.251 C 64.274 82.300,65.100 82.780,65.981 83.318 " stroke="none" fill="#ffffff" fill-rule="evenodd"></path><path id="path2" d="M41.697 37.958 C 40.535 38.649,37.073 40.841,34.750 42.355 C 33.363 43.260,32.106 44.059,27.276 47.109 C 26.282 47.737,25.045 48.528,24.526 48.868 C 24.008 49.209,23.228 49.696,22.794 49.951 C 21.646 50.626,21.581 51.052,22.549 51.558 C 22.843 51.711,23.871 52.355,24.833 52.989 C 26.729 54.238,32.322 57.809,32.822 58.089 C 32.991 58.184,33.419 58.455,33.773 58.690 C 34.127 58.925,34.979 59.477,35.667 59.917 C 38.434 61.687,38.785 61.911,39.667 62.467 C 41.549 63.654,42.339 64.232,42.289 64.382 C 42.261 64.467,40.066 65.919,37.411 67.608 C 34.756 69.297,31.833 71.161,30.917 71.751 C 30.000 72.341,28.425 73.346,27.417 73.983 C 22.502 77.091,21.833 77.544,21.833 77.760 C 21.833 77.951,25.137 80.333,25.402 80.333 C 25.464 80.333,28.800 82.447,32.433 84.788 C 32.918 85.100,37.248 87.862,37.992 88.333 C 43.565 91.864,42.771 91.622,44.706 90.379 C 45.555 89.833,47.225 88.764,48.417 88.003 C 49.608 87.243,50.996 86.349,51.500 86.018 C 52.004 85.687,52.550 85.342,52.713 85.250 C 53.012 85.082,55.374 83.583,56.917 82.583 C 60.365 80.347,63.945 78.114,64.083 78.113 C 64.225 78.112,68.221 80.599,72.417 83.299 C 73.058 83.712,73.958 84.289,74.417 84.582 C 74.875 84.875,75.850 85.502,76.583 85.975 C 77.317 86.448,78.719 87.341,79.699 87.959 C 80.679 88.578,82.279 89.590,83.253 90.208 C 85.516 91.645,85.028 91.741,89.083 89.053 C 89.908 88.506,91.408 87.547,92.417 86.922 C 93.425 86.297,94.962 85.323,95.833 84.757 C 96.704 84.191,98.279 83.184,99.333 82.520 C 105.819 78.435,106.333 78.085,106.333 77.766 C 106.333 77.496,104.184 76.088,94.339 69.907 C 93.471 69.362,91.726 68.242,90.462 67.417 C 89.198 66.592,87.639 65.590,86.999 65.190 C 85.430 64.213,85.136 64.587,89.750 61.691 C 91.217 60.771,92.642 59.860,92.917 59.668 C 93.192 59.477,94.129 58.872,95.000 58.325 C 98.574 56.080,101.272 54.359,102.762 53.375 C 103.629 52.802,104.374 52.333,104.417 52.333 C 104.625 52.333,106.333 51.074,106.331 50.923 C 106.325 50.549,106.121 50.398,102.936 48.417 C 102.416 48.093,101.066 47.229,98.611 45.648 C 97.954 45.225,96.367 44.219,95.083 43.412 C 93.800 42.605,91.876 41.376,90.807 40.681 C 86.749 38.041,85.588 37.333,85.313 37.333 C 85.032 37.333,82.875 38.639,78.167 41.657 C 76.837 42.509,75.262 43.515,74.667 43.892 C 74.071 44.270,73.232 44.804,72.802 45.081 C 72.372 45.357,71.193 46.108,70.181 46.750 C 69.169 47.392,67.511 48.456,66.497 49.116 C 64.174 50.626,64.181 50.625,63.245 50.051 C 62.825 49.794,62.242 49.437,61.949 49.257 C 61.656 49.078,60.479 48.323,59.333 47.579 C 58.188 46.835,56.913 46.022,56.500 45.772 C 56.087 45.522,54.775 44.688,53.583 43.919 C 51.467 42.552,45.078 38.505,44.419 38.113 C 44.236 38.005,43.907 37.785,43.688 37.625 C 43.123 37.213,42.884 37.253,41.697 37.958 M42.819 38.181 C 42.628 38.372,42.430 38.486,42.379 38.435 C 42.241 38.297,42.671 37.833,42.937 37.833 C 43.094 37.833,43.057 37.943,42.819 38.181 M229.167 49.620 C 230.496 49.646,231.738 49.747,231.927 49.845 C 232.115 49.942,232.603 49.993,233.010 49.957 L 233.750 49.892 232.885 49.862 C 232.409 49.846,231.973 49.758,231.917 49.667 C 231.854 49.565,230.831 49.514,229.282 49.537 L 226.750 49.573 229.167 49.620 M225.833 49.833 L 225.083 49.950 225.875 49.975 C 226.310 49.989,226.667 49.925,226.667 49.833 C 226.667 49.742,226.648 49.678,226.625 49.692 C 226.602 49.705,226.246 49.769,225.833 49.833 M148.292 49.958 C 149.323 49.987,151.010 49.987,152.042 49.958 C 153.073 49.929,152.229 49.905,150.167 49.905 C 148.104 49.905,147.260 49.929,148.292 49.958 M154.079 50.160 C 154.138 50.255,154.337 50.333,154.521 50.333 C 155.552 50.333,155.569 50.368,158.000 57.500 C 158.266 58.279,158.866 60.004,159.333 61.333 C 159.801 62.663,160.401 64.387,160.667 65.167 C 160.932 65.946,161.531 67.671,161.998 69.000 C 162.465 70.329,163.109 72.204,163.430 73.167 C 163.750 74.129,164.082 75.067,164.167 75.250 C 164.251 75.433,164.583 76.371,164.903 77.333 C 165.827 80.109,166.674 82.555,166.837 82.917 C 166.920 83.100,167.250 84.037,167.571 85.000 C 167.892 85.962,168.390 87.425,168.679 88.250 C 169.752 91.319,169.792 92.001,168.920 92.332 C 168.334 92.555,168.392 92.687,168.984 92.481 C 170.043 92.111,169.977 91.113,168.651 87.465 C 168.375 86.705,167.929 85.446,167.661 84.667 C 167.393 83.887,166.844 82.313,166.441 81.167 C 166.039 80.021,165.141 77.433,164.446 75.417 C 163.750 73.400,162.837 70.775,162.416 69.583 C 161.994 68.392,161.471 66.892,161.253 66.250 C 161.034 65.608,160.397 63.771,159.836 62.167 C 159.276 60.563,158.563 58.500,158.252 57.583 C 156.218 51.585,155.942 50.914,155.333 50.490 C 154.835 50.143,153.920 49.902,154.079 50.160 M224.250 50.167 L 223.750 50.294 224.198 50.314 C 224.445 50.324,224.693 50.258,224.750 50.167 C 224.807 50.075,224.830 50.009,224.802 50.020 C 224.773 50.031,224.525 50.097,224.250 50.167 M233.980 50.213 C 234.060 50.294,234.341 50.333,234.605 50.300 C 235.045 50.245,235.034 50.233,234.458 50.153 C 234.100 50.104,233.896 50.129,233.980 50.213 M180.542 50.292 C 182.627 50.318,186.040 50.318,188.125 50.292 C 190.210 50.265,188.504 50.243,184.333 50.243 C 180.162 50.243,178.456 50.265,180.542 50.292 M254.136 50.292 C 256.182 50.318,259.482 50.318,261.470 50.291 C 263.457 50.265,261.783 50.243,257.750 50.243 C 253.717 50.243,252.091 50.265,254.136 50.292 M192.000 50.540 C 192.000 50.610,192.506 50.656,193.125 50.644 C 194.291 50.620,194.161 50.551,192.792 50.464 C 192.356 50.437,192.000 50.471,192.000 50.540 M235.261 50.518 C 235.312 50.600,235.524 50.667,235.732 50.667 C 235.941 50.667,236.163 50.718,236.225 50.781 C 236.373 50.929,237.554 51.335,237.626 51.263 C 237.702 51.187,236.363 50.650,235.710 50.496 C 235.399 50.423,235.208 50.432,235.261 50.518 M265.299 50.526 C 265.364 50.588,265.867 50.678,266.417 50.725 C 266.967 50.773,267.717 50.851,268.083 50.898 L 268.750 50.985 268.083 50.814 C 267.229 50.594,265.144 50.379,265.299 50.526 M175.652 50.880 C 175.507 50.992,175.291 51.271,175.173 51.500 C 175.056 51.729,175.026 51.842,175.107 51.750 C 176.105 50.625,176.217 50.446,175.652 50.880 M194.509 50.842 C 194.731 50.983,195.976 51.076,195.819 50.940 C 195.781 50.906,195.416 50.837,195.009 50.784 C 194.529 50.723,194.353 50.743,194.509 50.842 M249.106 51.106 C 248.864 51.348,248.667 51.625,248.667 51.723 C 248.667 51.831,248.716 51.839,248.794 51.742 C 248.864 51.655,249.102 51.377,249.323 51.125 C 249.835 50.541,249.684 50.528,249.106 51.106 M196.105 51.201 C 196.150 51.274,196.402 51.333,196.667 51.333 C 196.931 51.333,197.193 51.408,197.250 51.500 C 197.307 51.592,197.532 51.667,197.750 51.667 C 197.968 51.667,198.193 51.742,198.250 51.833 C 198.307 51.925,198.480 51.997,198.635 51.994 C 199.058 51.985,198.172 51.513,197.718 51.506 C 197.517 51.503,197.312 51.433,197.261 51.352 C 197.211 51.270,196.912 51.173,196.597 51.137 C 196.281 51.100,196.060 51.129,196.105 51.201 M65.259 51.804 C 65.804 52.155,67.360 53.149,68.716 54.013 C 70.073 54.877,72.323 56.314,73.716 57.208 C 75.110 58.101,77.058 59.339,78.045 59.958 C 79.032 60.577,80.270 61.360,80.795 61.697 C 81.320 62.035,82.237 62.614,82.833 62.984 C 83.429 63.354,84.104 63.810,84.333 63.997 L 84.750 64.337 84.271 64.698 C 83.791 65.058,83.138 65.476,78.333 68.496 C 76.912 69.388,73.987 71.257,71.833 72.647 C 69.679 74.037,67.804 75.224,67.667 75.284 C 67.529 75.345,67.229 75.522,67.000 75.677 C 64.715 77.231,64.147 77.542,63.851 77.399 C 63.535 77.247,60.208 75.124,57.807 73.542 C 57.076 73.060,56.448 72.667,56.410 72.667 C 56.372 72.667,55.447 72.067,54.354 71.333 C 53.260 70.600,52.325 70.000,52.275 70.000 C 52.225 70.000,51.506 69.569,50.678 69.042 C 49.851 68.515,48.178 67.452,46.962 66.679 C 44.218 64.938,43.666 64.536,43.668 64.283 C 43.670 64.073,45.150 63.076,49.583 60.298 C 51.050 59.379,52.737 58.309,53.333 57.921 C 53.929 57.532,55.242 56.692,56.250 56.054 C 57.258 55.416,58.663 54.524,59.371 54.072 C 64.738 50.646,63.937 50.954,65.259 51.804 M238.166 51.615 C 239.402 52.511,239.583 53.158,239.475 56.297 C 239.408 58.259,239.171 58.905,238.462 59.057 C 238.099 59.135,238.100 59.137,238.483 59.111 C 239.361 59.051,239.578 58.391,239.636 55.613 C 239.696 52.751,239.538 52.267,238.333 51.624 C 237.800 51.340,237.786 51.339,238.166 51.615 M218.706 53.081 C 217.582 54.122,216.203 55.925,216.389 56.111 C 216.437 56.159,216.640 55.879,216.840 55.487 C 217.209 54.763,219.144 52.688,219.749 52.368 C 219.931 52.271,220.036 52.147,219.981 52.092 C 219.926 52.038,219.353 52.483,218.706 53.081 M174.914 71.333 C 174.914 81.921,174.934 86.252,174.958 80.958 C 174.983 75.665,174.983 67.002,174.958 61.708 C 174.934 56.415,174.914 60.746,174.914 71.333 M248.581 71.333 C 248.581 81.921,248.601 86.252,248.625 80.958 C 248.649 75.665,248.649 67.002,248.625 61.708 C 248.601 56.415,248.581 60.746,248.581 71.333 M272.326 52.612 C 277.816 56.694,277.987 65.054,272.654 68.675 C 272.121 69.037,271.606 69.333,271.509 69.333 C 271.412 69.333,271.333 69.483,271.333 69.667 C 271.333 69.925,271.437 69.995,271.792 69.977 C 272.185 69.958,272.197 69.944,271.875 69.882 C 271.308 69.773,271.405 69.651,272.748 68.789 C 278.210 65.280,278.017 55.823,272.417 52.596 C 271.923 52.312,271.922 52.312,272.326 52.612 M200.500 52.741 C 200.500 52.787,200.725 52.941,201.000 53.083 C 201.275 53.226,201.500 53.304,201.500 53.259 C 201.500 53.213,201.275 53.059,201.000 52.917 C 200.725 52.774,200.500 52.696,200.500 52.741 M201.667 53.375 C 201.713 53.426,202.206 53.803,202.762 54.212 C 206.342 56.843,208.535 60.687,209.534 66.083 C 209.822 67.638,209.816 74.521,209.526 76.000 C 208.363 81.928,206.314 85.592,202.500 88.565 C 201.730 89.165,202.227 88.919,203.083 88.277 C 212.073 81.527,212.551 62.283,203.910 54.942 C 202.939 54.117,201.320 52.986,201.667 53.375 M215.919 56.886 C 215.562 57.740,215.618 57.874,216.006 57.097 C 216.185 56.737,216.296 56.407,216.252 56.363 C 216.207 56.318,216.058 56.554,215.919 56.886 M227.609 56.458 C 227.567 56.527,228.455 56.583,229.583 56.583 C 230.712 56.583,231.600 56.527,231.558 56.458 C 231.515 56.390,230.627 56.333,229.583 56.333 C 228.540 56.333,227.652 56.390,227.609 56.458 M226.413 56.840 C 226.342 56.954,226.468 56.974,226.778 56.900 C 227.416 56.746,227.477 56.667,226.954 56.667 C 226.715 56.667,226.471 56.745,226.413 56.840 M231.833 56.732 C 231.833 56.769,232.127 56.826,232.486 56.861 C 232.845 56.895,233.103 56.865,233.059 56.795 C 232.980 56.667,231.833 56.608,231.833 56.732 M257.000 62.167 L 257.000 67.667 260.407 67.667 C 262.281 67.667,263.849 67.610,263.891 67.542 C 263.934 67.473,262.438 67.440,260.568 67.468 L 257.167 67.519 257.167 62.166 L 257.167 56.814 260.484 56.865 C 262.309 56.894,263.767 56.860,263.725 56.792 C 263.682 56.723,262.151 56.667,260.323 56.667 L 257.000 56.667 257.000 62.167 M183.410 57.208 C 183.366 57.323,183.350 63.754,183.374 71.500 L 183.417 85.583 186.988 85.628 C 188.953 85.653,190.618 85.616,190.689 85.545 C 190.759 85.474,189.208 85.438,187.242 85.465 L 183.667 85.513 183.667 71.333 L 183.667 57.154 187.234 57.202 C 189.196 57.228,190.767 57.194,190.724 57.125 C 190.582 56.894,183.499 56.975,183.410 57.208 M225.192 57.600 C 224.498 58.194,223.993 58.948,224.008 59.367 C 224.012 59.486,224.197 59.236,224.418 58.811 C 224.639 58.386,225.138 57.805,225.526 57.519 C 225.915 57.234,226.156 57.000,226.063 57.000 C 225.970 57.000,225.578 57.270,225.192 57.600 M264.167 57.064 C 264.167 57.099,264.354 57.164,264.583 57.207 C 264.813 57.251,265.000 57.223,265.000 57.144 C 265.000 57.065,264.813 57.000,264.583 57.000 C 264.354 57.000,264.167 57.029,264.167 57.064 M191.014 57.394 C 191.052 57.428,191.450 57.495,191.897 57.543 C 192.395 57.597,192.622 57.574,192.481 57.485 C 192.265 57.348,190.863 57.262,191.014 57.394 M265.683 57.665 C 266.013 57.840,266.519 58.251,266.808 58.580 C 267.097 58.909,267.333 59.108,267.333 59.021 C 267.333 58.762,265.652 57.333,265.357 57.341 C 265.206 57.345,265.353 57.491,265.683 57.665 M141.936 58.269 C 141.766 58.680,141.663 59.052,141.706 59.095 C 141.750 59.139,141.916 58.830,142.077 58.410 C 142.457 57.416,142.338 57.297,141.936 58.269 M215.429 58.262 C 215.367 58.506,215.355 58.743,215.400 58.789 C 215.446 58.835,215.534 58.673,215.595 58.429 C 215.657 58.184,215.669 57.947,215.623 57.901 C 215.578 57.855,215.490 58.018,215.429 58.262 M149.534 58.708 C 149.430 58.915,148.742 60.921,148.006 63.167 C 147.269 65.412,146.036 69.162,145.265 71.498 C 144.494 73.835,143.898 75.804,143.941 75.873 C 143.984 75.943,146.640 76.000,149.843 76.000 C 155.890 76.000,155.948 75.993,155.487 75.333 C 155.350 75.138,155.334 75.165,155.417 75.458 L 155.522 75.833 149.782 75.833 L 144.041 75.833 145.247 72.208 C 145.910 70.215,147.185 66.353,148.080 63.628 C 148.975 60.902,149.774 58.713,149.854 58.763 C 149.934 58.812,150.000 58.736,150.000 58.593 C 150.000 58.214,149.752 58.276,149.534 58.708 M195.347 58.732 C 195.674 59.037,197.000 59.977,197.000 59.904 C 197.000 59.717,195.637 58.667,195.396 58.667 C 195.331 58.667,195.309 58.696,195.347 58.732 M215.107 59.792 C 214.969 60.624,214.989 62.918,215.141 63.750 C 215.215 64.152,215.260 63.375,215.256 61.792 C 215.249 58.882,215.252 58.915,215.107 59.792 M223.775 60.167 C 223.415 61.792,224.832 64.134,226.792 65.150 C 227.422 65.477,227.212 65.254,226.292 64.616 C 224.711 63.522,224.120 62.548,223.995 60.833 C 223.916 59.740,223.888 59.657,223.775 60.167 M197.913 60.902 C 198.338 61.445,198.796 62.101,198.931 62.361 C 199.065 62.621,199.216 62.833,199.265 62.833 C 199.461 62.833,198.608 61.536,197.895 60.750 L 197.140 59.917 197.913 60.902 M267.784 60.750 C 267.837 61.208,267.907 61.615,267.940 61.653 C 268.065 61.797,267.970 60.568,267.832 60.250 C 267.739 60.036,267.722 60.214,267.784 60.750 M299.042 60.290 C 299.660 60.322,300.673 60.322,301.292 60.290 C 301.910 60.258,301.404 60.232,300.167 60.232 C 298.929 60.232,298.423 60.258,299.042 60.290 M296.083 60.500 L 295.250 60.614 296.032 60.640 C 296.462 60.655,296.860 60.592,296.917 60.500 C 296.973 60.408,296.996 60.345,296.968 60.360 C 296.940 60.374,296.542 60.437,296.083 60.500 M302.651 60.552 C 302.726 60.626,303.154 60.662,303.602 60.632 L 304.417 60.578 303.466 60.497 C 302.943 60.453,302.577 60.477,302.651 60.552 M320.083 60.756 C 319.684 60.939,319.652 60.986,319.925 60.992 C 320.113 60.997,320.340 60.927,320.429 60.837 C 320.519 60.748,321.935 60.652,323.588 60.625 L 326.583 60.575 323.583 60.551 C 321.350 60.533,320.455 60.586,320.083 60.756 M341.300 60.624 C 342.060 60.655,343.260 60.655,343.966 60.624 C 344.672 60.593,344.050 60.567,342.583 60.567 C 341.117 60.568,340.539 60.593,341.300 60.624 M304.642 60.876 C 304.726 60.960,304.972 61.000,305.189 60.966 C 305.523 60.914,305.499 60.890,305.036 60.814 C 304.705 60.759,304.550 60.783,304.642 60.876 M305.750 61.167 C 305.807 61.258,306.017 61.328,306.218 61.322 C 306.570 61.310,306.571 61.305,306.250 61.167 C 305.791 60.970,305.628 60.970,305.750 61.167 M327.689 61.253 C 327.839 61.435,328.107 61.883,328.284 62.250 C 328.461 62.617,329.032 63.723,329.553 64.708 C 330.074 65.694,330.913 67.287,331.418 68.248 C 332.404 70.124,332.999 71.210,333.097 71.315 C 333.199 71.424,333.667 70.973,333.661 70.771 C 333.658 70.668,333.554 70.718,333.430 70.882 C 333.189 71.199,332.930 70.817,331.592 68.167 C 330.163 65.338,327.940 61.327,327.697 61.139 C 327.436 60.937,327.435 60.945,327.689 61.253 M346.206 61.335 C 346.413 61.665,345.615 63.464,344.091 66.106 C 343.872 66.485,343.398 67.348,343.037 68.023 C 342.676 68.698,342.145 69.681,341.857 70.208 C 341.569 70.735,341.119 71.560,340.858 72.042 C 340.596 72.523,340.235 73.179,340.054 73.500 C 339.873 73.821,339.482 74.541,339.185 75.101 L 338.646 76.119 338.989 76.726 C 339.179 77.060,339.493 77.615,339.688 77.958 C 339.883 78.302,340.324 79.108,340.668 79.750 C 341.599 81.487,342.109 82.425,343.974 85.833 C 344.300 86.429,344.776 87.292,345.032 87.750 C 347.119 91.495,347.307 92.333,346.058 92.333 C 345.843 92.333,345.667 92.403,345.667 92.488 C 345.667 92.734,346.675 92.384,346.934 92.048 C 347.289 91.590,347.131 91.208,344.882 87.085 C 343.732 84.976,342.301 82.350,341.703 81.250 C 341.104 80.150,340.293 78.679,339.900 77.982 C 338.827 76.078,338.822 76.186,340.092 73.822 C 340.705 72.682,341.260 71.675,341.327 71.583 C 341.394 71.492,341.847 70.667,342.332 69.750 C 342.818 68.833,343.854 66.921,344.633 65.500 C 346.542 62.021,346.889 61.000,346.162 61.000 C 346.068 61.000,346.087 61.144,346.206 61.335 M140.615 62.115 C 140.458 62.539,140.357 62.913,140.391 62.946 C 140.424 62.980,140.583 62.664,140.744 62.244 C 140.904 61.823,141.005 61.449,140.968 61.413 C 140.931 61.376,140.772 61.692,140.615 62.115 M291.537 61.944 C 291.236 62.092,291.018 62.240,291.052 62.274 C 291.123 62.345,292.167 61.843,292.167 61.738 C 292.167 61.637,292.144 61.644,291.537 61.944 M337.268 63.601 C 336.742 64.573,336.347 65.402,336.388 65.443 C 336.429 65.484,336.818 64.820,337.252 63.967 C 337.687 63.115,338.118 62.321,338.212 62.204 C 338.305 62.088,338.345 61.956,338.302 61.913 C 338.258 61.869,337.793 62.629,337.268 63.601 M267.860 62.583 C 267.843 62.950,267.790 63.438,267.743 63.667 L 267.657 64.083 267.836 63.673 C 267.935 63.447,267.988 62.959,267.954 62.589 L 267.892 61.917 267.860 62.583 M319.001 62.217 C 319.000 62.447,319.521 63.368,319.605 63.284 C 319.649 63.240,319.531 62.952,319.343 62.644 C 319.155 62.336,319.001 62.143,319.001 62.217 M308.996 62.621 C 310.951 64.022,311.964 65.178,312.968 67.154 C 315.174 71.496,315.555 78.028,313.901 83.140 C 313.422 84.622,313.067 85.362,312.181 86.733 C 310.851 88.790,309.338 90.105,306.833 91.380 C 306.146 91.731,305.771 91.966,306.000 91.904 C 308.102 91.333,311.199 88.778,312.614 86.450 C 317.111 79.047,315.145 65.452,309.167 62.604 C 308.600 62.334,308.595 62.335,308.996 62.621 M199.586 63.616 C 199.836 64.214,200.000 64.484,200.000 64.298 C 200.000 64.118,199.494 63.000,199.412 63.000 C 199.366 63.000,199.445 63.277,199.586 63.616 M288.208 64.306 C 287.196 65.302,285.796 67.167,286.060 67.167 C 286.104 67.167,286.303 66.902,286.503 66.579 C 286.928 65.891,286.928 65.891,288.329 64.446 C 289.656 63.077,289.565 62.970,288.208 64.306 M320.433 65.001 C 320.683 65.460,320.914 65.809,320.946 65.776 C 321.018 65.704,320.170 64.167,320.059 64.167 C 320.015 64.167,320.184 64.542,320.433 65.001 M200.102 64.917 C 200.239 65.529,200.334 65.663,200.331 65.236 C 200.329 65.060,200.252 64.804,200.159 64.667 C 200.036 64.484,200.020 64.552,200.102 64.917 M215.362 64.750 C 215.359 64.933,215.421 65.233,215.500 65.417 C 215.683 65.841,215.683 65.403,215.500 64.833 C 215.393 64.498,215.366 64.482,215.362 64.750 M152.023 65.167 C 152.023 65.304,152.088 65.567,152.167 65.750 C 152.257 65.960,152.310 65.991,152.310 65.833 C 152.310 65.696,152.245 65.433,152.167 65.250 C 152.076 65.040,152.023 65.009,152.023 65.167 M266.324 66.125 L 265.750 66.750 266.375 66.176 C 266.719 65.860,267.000 65.578,267.000 65.551 C 267.000 65.423,266.859 65.543,266.324 66.125 M200.362 65.833 C 200.370 66.266,200.633 66.978,200.638 66.583 C 200.641 66.400,200.579 66.100,200.500 65.917 C 200.412 65.712,200.359 65.680,200.362 65.833 M335.911 66.208 L 335.647 66.750 335.986 66.333 C 336.313 65.932,336.420 65.667,336.254 65.667 C 336.211 65.667,336.056 65.910,335.911 66.208 M228.750 66.167 C 228.807 66.258,228.927 66.333,229.018 66.333 C 229.109 66.333,229.493 66.483,229.873 66.667 C 230.252 66.850,230.642 66.998,230.740 66.995 C 230.907 66.990,228.907 66.000,228.730 66.000 C 228.684 66.000,228.693 66.075,228.750 66.167 M321.244 66.458 C 321.390 66.756,321.544 67.000,321.588 67.000 C 321.753 67.000,321.647 66.735,321.320 66.333 L 320.980 65.917 321.244 66.458 M297.500 66.827 C 297.362 66.904,296.912 67.066,296.500 67.186 C 294.956 67.635,293.233 69.845,292.553 72.250 C 292.147 73.685,292.146 79.473,292.551 80.917 C 293.318 83.647,295.352 86.026,296.891 85.992 C 297.105 85.987,296.947 85.879,296.500 85.724 C 293.935 84.835,292.555 82.021,292.385 77.333 C 292.129 70.248,294.648 66.679,299.776 66.862 C 300.616 66.892,301.268 66.860,301.225 66.792 C 301.118 66.621,297.811 66.652,297.500 66.827 M231.084 67.167 C 231.140 67.259,231.266 67.333,231.363 67.333 C 231.603 67.333,234.965 68.977,235.551 69.381 C 235.809 69.558,236.057 69.665,236.103 69.619 C 236.207 69.515,234.814 68.721,233.162 67.944 C 231.506 67.164,230.955 66.958,231.084 67.167 M302.250 67.295 C 302.834 67.487,303.369 67.852,304.039 68.518 C 304.565 69.041,304.922 69.332,304.833 69.167 C 304.385 68.329,302.495 66.991,301.787 67.010 C 301.573 67.016,301.767 67.136,302.250 67.295 M200.791 68.250 C 200.840 68.892,200.907 69.448,200.940 69.486 C 201.056 69.620,200.965 67.912,200.835 67.500 C 200.758 67.258,200.740 67.572,200.791 68.250 M321.667 67.248 C 321.667 67.416,322.894 69.494,322.957 69.432 C 322.989 69.400,322.787 68.986,322.508 68.513 C 322.228 68.039,322.000 67.585,322.000 67.503 C 322.000 67.420,321.925 67.307,321.833 67.250 C 321.742 67.193,321.667 67.192,321.667 67.248 M216.516 67.708 C 216.809 68.272,218.521 70.368,218.613 70.276 C 218.657 70.232,218.421 69.908,218.088 69.556 C 217.756 69.204,217.255 68.560,216.974 68.125 C 216.444 67.300,216.179 67.059,216.516 67.708 M285.195 68.685 C 285.023 69.087,284.833 69.604,284.773 69.833 L 284.665 70.250 284.863 69.833 C 285.495 68.501,285.656 68.101,285.586 68.031 C 285.543 67.988,285.367 68.282,285.195 68.685 M334.250 69.333 C 333.927 69.975,333.700 70.500,333.746 70.500 C 333.792 70.500,334.094 69.975,334.417 69.333 C 334.740 68.692,334.967 68.167,334.921 68.167 C 334.875 68.167,334.573 68.692,334.250 69.333 M236.333 69.714 C 236.333 69.751,236.835 70.150,237.447 70.599 C 239.330 71.981,241.010 74.347,241.491 76.292 C 241.588 76.681,241.742 77.290,241.833 77.644 C 242.358 79.672,241.845 83.070,240.627 85.643 C 239.980 87.007,237.867 89.472,236.918 89.968 C 236.735 90.064,236.627 90.182,236.677 90.232 C 236.727 90.282,237.223 89.955,237.779 89.505 C 242.915 85.349,243.692 76.935,239.380 72.170 C 238.441 71.132,236.333 69.433,236.333 69.714 M305.283 70.248 C 305.435 70.568,305.582 70.806,305.610 70.779 C 305.702 70.687,305.263 69.667,305.133 69.667 C 305.063 69.667,305.130 69.928,305.283 70.248 M323.244 70.125 C 323.390 70.423,323.544 70.667,323.588 70.667 C 323.753 70.667,323.647 70.401,323.320 70.000 L 322.980 69.583 323.244 70.125 M272.423 70.177 C 272.476 70.263,272.625 70.333,272.754 70.333 C 273.069 70.333,274.392 71.080,275.421 71.838 C 279.055 74.515,280.113 80.636,277.753 85.335 C 276.694 87.445,274.647 89.341,272.236 90.444 C 271.320 90.864,270.997 91.120,271.740 90.837 C 280.378 87.553,281.955 75.345,274.319 70.871 C 273.346 70.301,272.252 69.901,272.423 70.177 M218.985 70.565 C 219.274 70.914,220.831 72.060,220.905 71.978 C 220.936 71.944,220.465 71.551,219.859 71.104 C 219.254 70.658,218.860 70.415,218.985 70.565 M284.447 70.564 C 284.385 70.727,284.338 70.986,284.344 71.139 C 284.351 71.323,284.409 71.281,284.515 71.014 C 284.604 70.793,284.650 70.534,284.619 70.439 C 284.587 70.344,284.510 70.400,284.447 70.564 M323.694 70.959 C 323.926 71.482,324.894 73.161,324.939 73.117 C 325.012 73.044,323.837 70.833,323.725 70.833 C 323.678 70.833,323.664 70.890,323.694 70.959 M284.093 72.093 C 284.030 72.427,284.012 72.734,284.053 72.775 C 284.093 72.816,284.178 72.575,284.241 72.241 C 284.303 71.906,284.321 71.599,284.281 71.559 C 284.240 71.518,284.155 71.758,284.093 72.093 M221.259 72.181 C 221.395 72.401,222.000 72.701,221.999 72.548 C 221.998 72.476,221.810 72.330,221.582 72.224 C 221.353 72.118,221.208 72.099,221.259 72.181 M306.109 72.750 C 306.165 73.117,306.238 73.448,306.272 73.486 C 306.398 73.629,306.304 72.737,306.159 72.417 C 306.054 72.184,306.039 72.285,306.109 72.750 M200.861 73.333 C 200.844 73.654,200.793 74.217,200.749 74.583 L 200.668 75.250 200.843 74.693 C 200.939 74.386,200.989 73.824,200.955 73.443 C 200.895 72.788,200.890 72.782,200.861 73.333 M283.747 74.391 C 283.683 75.078,283.664 75.740,283.705 75.862 C 283.747 75.984,283.836 75.458,283.903 74.693 C 283.970 73.929,283.989 73.267,283.945 73.223 C 283.900 73.178,283.811 73.704,283.747 74.391 M325.780 74.790 L 326.583 76.330 326.286 76.854 C 326.123 77.143,326.026 77.415,326.071 77.460 C 326.116 77.505,326.284 77.266,326.445 76.929 L 326.737 76.316 326.127 75.116 C 325.791 74.456,325.395 73.767,325.247 73.583 C 325.099 73.400,325.339 73.943,325.780 74.790 M224.189 73.745 C 224.319 73.875,225.500 74.343,225.500 74.264 C 225.500 74.163,224.487 73.667,224.280 73.667 C 224.187 73.667,224.146 73.702,224.189 73.745 M257.000 79.833 L 257.000 85.667 261.157 85.667 C 263.443 85.667,265.349 85.610,265.391 85.542 C 265.434 85.473,263.601 85.438,261.318 85.464 L 257.167 85.511 257.167 79.833 L 257.167 74.155 260.984 74.202 C 263.084 74.229,264.767 74.194,264.724 74.125 C 264.682 74.056,262.926 74.000,260.823 74.000 L 257.000 74.000 257.000 79.833 M155.005 74.333 C 155.005 74.471,155.078 74.696,155.167 74.833 C 155.310 75.056,155.328 75.056,155.328 74.833 C 155.328 74.696,155.256 74.471,155.167 74.333 C 155.023 74.111,155.005 74.111,155.005 74.333 M306.355 76.486 C 306.343 77.808,306.364 78.858,306.402 78.819 C 306.562 78.656,306.644 76.000,306.516 75.083 C 306.399 74.238,306.374 74.454,306.355 76.486 M265.000 74.399 C 265.000 74.435,265.294 74.493,265.653 74.527 C 266.012 74.561,266.270 74.532,266.226 74.461 C 266.147 74.333,265.000 74.275,265.000 74.399 M267.972 75.499 C 268.350 75.773,268.860 76.300,269.105 76.669 C 269.349 77.038,269.586 77.303,269.631 77.258 C 269.842 77.047,267.825 75.000,267.408 75.000 C 267.339 75.000,267.593 75.224,267.972 75.499 M200.523 75.750 C 200.508 75.933,200.454 76.271,200.403 76.500 C 200.323 76.860,200.336 76.876,200.499 76.621 C 200.603 76.458,200.657 76.120,200.619 75.871 C 200.574 75.575,200.540 75.533,200.523 75.750 M229.500 76.175 C 230.078 76.567,230.407 76.681,230.000 76.348 C 229.771 76.161,229.508 76.007,229.417 76.006 C 229.325 76.006,229.362 76.081,229.500 76.175 M231.121 77.238 C 231.509 77.577,232.021 78.094,232.260 78.386 C 232.499 78.678,232.619 78.767,232.527 78.583 C 232.352 78.234,231.320 77.223,230.750 76.843 C 230.567 76.721,230.734 76.898,231.121 77.238 M269.768 77.917 C 269.905 78.529,270.001 78.663,269.997 78.236 C 269.996 78.060,269.919 77.804,269.826 77.667 C 269.702 77.484,269.687 77.552,269.768 77.917 M199.503 79.136 C 199.276 79.656,198.850 80.437,198.556 80.874 C 198.263 81.310,198.074 81.667,198.136 81.666 C 198.388 81.666,200.068 78.608,199.968 78.333 C 199.940 78.255,199.731 78.617,199.503 79.136 M283.709 79.000 C 283.707 79.504,283.763 80.142,283.833 80.417 L 283.961 80.917 283.966 80.333 C 283.968 80.012,283.912 79.375,283.841 78.917 L 283.711 78.083 283.709 79.000 M270.035 79.917 C 270.035 81.087,270.054 81.176,270.197 80.641 C 270.302 80.246,270.302 79.776,270.197 79.307 C 270.046 78.629,270.036 78.668,270.035 79.917 M324.762 79.609 C 324.523 80.035,324.362 80.418,324.403 80.459 C 324.444 80.500,324.671 80.151,324.908 79.683 C 325.447 78.620,325.344 78.567,324.762 79.609 M306.091 79.924 C 306.027 80.349,306.012 80.735,306.058 80.781 C 306.104 80.826,306.194 80.516,306.258 80.091 C 306.321 79.666,306.336 79.280,306.290 79.235 C 306.244 79.189,306.155 79.499,306.091 79.924 M233.050 81.000 C 233.050 81.504,233.081 81.710,233.119 81.458 C 233.158 81.206,233.158 80.794,233.119 80.542 C 233.081 80.290,233.050 80.496,233.050 81.000 M323.911 81.208 L 323.647 81.750 323.986 81.333 C 324.313 80.932,324.420 80.667,324.254 80.667 C 324.211 80.667,324.056 80.910,323.911 81.208 M305.750 81.333 C 305.687 81.530,305.674 81.729,305.720 81.775 C 305.765 81.821,305.854 81.697,305.917 81.500 C 305.979 81.303,305.993 81.104,305.947 81.058 C 305.901 81.012,305.813 81.136,305.750 81.333 M284.033 81.500 C 284.033 81.729,284.093 82.104,284.167 82.333 L 284.300 82.750 284.300 82.333 C 284.300 82.104,284.240 81.729,284.167 81.500 L 284.033 81.083 284.033 81.500 M330.417 84.588 C 326.961 91.350,326.660 91.918,326.499 91.972 C 326.408 92.003,326.333 92.106,326.333 92.201 C 326.333 92.738,327.090 91.447,329.530 86.747 C 331.798 82.380,332.282 81.555,332.482 81.720 C 332.673 81.877,332.704 81.866,332.638 81.667 C 332.401 80.948,332.022 81.446,330.417 84.588 M197.324 82.458 L 196.750 83.083 197.375 82.509 C 197.719 82.193,198.000 81.912,198.000 81.884 C 198.000 81.757,197.859 81.877,197.324 82.458 M323.316 82.208 C 323.209 82.415,322.937 82.921,322.712 83.333 C 322.487 83.746,322.428 83.933,322.581 83.750 C 322.904 83.364,323.711 81.833,323.592 81.833 C 323.548 81.833,323.424 82.002,323.316 82.208 M61.414 83.738 C 56.313 86.959,55.377 87.555,53.667 88.678 C 52.704 89.310,51.767 89.897,51.583 89.983 C 51.400 90.069,50.733 90.483,50.100 90.903 C 49.468 91.323,48.926 91.667,48.897 91.667 C 48.867 91.667,48.182 92.098,47.374 92.625 C 46.566 93.152,45.252 93.996,44.454 94.500 C 42.565 95.693,42.570 95.725,44.875 97.217 C 47.746 99.075,55.006 103.701,57.167 105.049 C 57.671 105.363,59.390 106.456,60.986 107.477 C 62.583 108.498,63.939 109.333,64.000 109.333 C 64.108 109.333,68.813 106.399,73.083 103.668 C 74.275 102.906,76.262 101.647,77.500 100.870 C 78.737 100.093,80.162 99.181,80.667 98.843 C 81.171 98.505,81.696 98.178,81.833 98.116 C 82.748 97.705,85.083 96.003,85.083 95.747 C 85.083 95.458,84.061 94.760,78.833 91.477 C 77.779 90.815,76.204 89.812,75.333 89.248 C 69.390 85.397,64.700 82.464,64.146 82.251 C 64.017 82.202,62.788 82.871,61.414 83.738 M269.319 82.875 C 269.213 83.081,268.892 83.512,268.605 83.833 L 268.083 84.416 268.640 83.916 C 269.145 83.463,269.793 82.500,269.593 82.500 C 269.549 82.500,269.425 82.669,269.319 82.875 M141.882 82.875 C 141.794 82.990,141.475 83.871,141.173 84.833 C 139.068 91.543,138.838 92.119,138.204 92.271 C 137.954 92.331,137.670 92.442,137.572 92.519 C 137.473 92.595,136.198 92.681,134.738 92.708 L 132.083 92.759 134.782 92.796 C 136.442 92.819,137.520 92.769,137.583 92.667 C 137.640 92.575,137.822 92.500,137.987 92.500 C 138.768 92.500,139.122 91.899,140.077 88.955 C 140.589 87.375,141.246 85.352,141.537 84.458 L 142.066 82.833 149.848 82.833 L 157.631 82.833 157.752 83.292 C 157.820 83.544,157.908 83.660,157.948 83.551 C 157.989 83.441,157.939 83.198,157.838 83.009 C 157.612 82.586,142.202 82.456,141.882 82.875 M216.167 82.741 C 216.167 82.787,216.392 82.941,216.667 83.083 C 216.942 83.226,217.167 83.304,217.167 83.259 C 217.167 83.213,216.942 83.059,216.667 82.917 C 216.392 82.774,216.167 82.696,216.167 82.741 M333.244 83.125 C 333.390 83.423,333.544 83.667,333.588 83.667 C 333.753 83.667,333.647 83.401,333.320 83.000 L 332.980 82.583 333.244 83.125 M284.357 83.000 C 284.357 83.137,284.421 83.400,284.500 83.583 C 284.590 83.793,284.643 83.824,284.643 83.667 C 284.643 83.529,284.579 83.267,284.500 83.083 C 284.410 82.873,284.357 82.842,284.357 83.000 M304.987 83.208 C 304.881 83.415,304.410 83.989,303.939 84.486 C 303.443 85.009,303.293 85.231,303.583 85.013 C 304.317 84.463,305.572 82.833,305.262 82.833 C 305.216 82.833,305.092 83.002,304.987 83.208 M196.000 83.514 L 195.417 84.020 196.040 83.635 C 196.382 83.423,196.663 83.194,196.665 83.125 C 196.668 82.943,196.641 82.959,196.000 83.514 M232.500 83.150 C 232.500 83.263,232.106 83.741,231.625 84.214 C 231.055 84.773,230.939 84.939,231.292 84.691 C 231.927 84.245,232.760 83.205,232.607 83.051 C 232.548 82.992,232.500 83.037,232.500 83.150 M214.440 83.868 C 214.384 84.078,214.346 84.550,214.356 84.917 C 214.371 85.491,214.394 85.446,214.518 84.595 C 214.666 83.583,214.623 83.186,214.440 83.868 M267.336 84.676 C 267.017 84.854,266.833 85.000,266.928 85.000 C 267.200 85.000,267.997 84.597,267.999 84.458 C 268.000 84.300,268.024 84.293,267.336 84.676 M193.167 84.833 L 192.750 84.967 193.208 84.983 C 193.460 84.993,193.667 84.925,193.667 84.833 C 193.667 84.742,193.648 84.674,193.625 84.683 C 193.602 84.692,193.396 84.760,193.167 84.833 M321.428 85.609 C 321.190 86.035,321.029 86.418,321.070 86.459 C 321.111 86.500,321.338 86.151,321.575 85.683 C 322.114 84.620,322.010 84.567,321.428 85.609 M191.833 85.167 L 191.083 85.283 191.782 85.308 C 192.166 85.322,192.527 85.258,192.583 85.167 C 192.640 85.075,192.663 85.011,192.635 85.025 C 192.607 85.039,192.246 85.103,191.833 85.167 M221.079 85.160 C 221.138 85.255,221.382 85.333,221.621 85.333 C 222.143 85.333,222.083 85.254,221.444 85.100 C 221.135 85.026,221.009 85.046,221.079 85.160 M266.083 85.167 L 265.583 85.294 266.032 85.314 C 266.279 85.324,266.527 85.258,266.583 85.167 C 266.640 85.075,266.663 85.009,266.635 85.020 C 266.607 85.031,266.358 85.097,266.083 85.167 M285.005 85.047 C 284.980 85.668,286.609 88.115,287.882 89.368 C 289.347 90.810,289.202 90.448,287.698 88.907 C 286.808 87.996,286.188 87.168,285.708 86.250 C 285.324 85.517,285.008 84.975,285.005 85.047 M222.288 85.512 C 222.617 85.819,228.079 86.155,228.349 85.885 C 228.423 85.811,227.456 85.742,226.200 85.733 C 224.944 85.723,223.521 85.643,223.038 85.554 C 222.554 85.465,222.217 85.446,222.288 85.512 M229.250 85.500 L 228.750 85.627 229.198 85.647 C 229.445 85.658,229.693 85.592,229.750 85.500 C 229.807 85.408,229.830 85.342,229.802 85.353 C 229.773 85.364,229.525 85.430,229.250 85.500 M301.667 85.833 L 301.250 85.967 301.698 85.983 C 301.945 85.993,302.193 85.925,302.250 85.833 C 302.367 85.644,302.258 85.644,301.667 85.833 M335.583 87.667 C 336.089 88.675,336.540 89.500,336.586 89.500 C 336.632 89.500,336.256 88.675,335.750 87.667 C 335.244 86.658,334.793 85.833,334.747 85.833 C 334.701 85.833,335.078 86.658,335.583 87.667 M297.442 86.208 C 297.485 86.277,298.298 86.333,299.250 86.333 C 300.202 86.333,301.015 86.277,301.057 86.208 C 301.100 86.140,300.286 86.083,299.249 86.083 C 298.213 86.083,297.400 86.140,297.442 86.208 M214.345 87.681 C 214.351 87.994,214.425 88.400,214.508 88.583 C 214.611 88.808,214.627 88.644,214.559 88.083 C 214.438 87.091,214.329 86.885,214.345 87.681 M319.983 88.208 C 319.875 88.415,319.603 88.902,319.378 89.292 C 319.153 89.681,319.032 89.998,319.109 89.996 C 319.255 89.991,320.403 87.833,320.259 87.833 C 320.215 87.833,320.090 88.002,319.983 88.208 M200.715 89.552 C 200.145 89.844,199.677 90.141,199.673 90.211 C 199.666 90.356,201.078 89.659,201.583 89.269 C 202.068 88.893,201.878 88.955,200.715 89.552 M214.678 89.107 C 214.672 89.211,214.814 89.473,214.994 89.690 C 215.175 89.906,215.325 89.990,215.328 89.875 C 215.331 89.760,215.270 89.667,215.192 89.667 C 215.114 89.667,214.970 89.498,214.870 89.292 C 214.771 89.085,214.684 89.002,214.678 89.107 M131.095 89.595 C 131.034 89.839,131.016 90.071,131.055 90.111 C 131.094 90.150,131.177 89.982,131.238 89.738 C 131.299 89.494,131.317 89.262,131.278 89.223 C 131.239 89.183,131.157 89.351,131.095 89.595 M130.796 90.792 C 130.665 91.379,130.850 92.056,131.198 92.266 C 131.371 92.370,131.375 92.346,131.219 92.153 C 131.110 92.018,130.998 91.535,130.969 91.079 C 130.920 90.304,130.909 90.285,130.796 90.792 M235.833 90.680 L 235.417 91.020 235.958 90.756 C 236.256 90.610,236.500 90.456,236.500 90.412 C 236.500 90.247,236.235 90.353,235.833 90.680 M289.667 90.746 C 289.667 90.789,289.910 90.944,290.208 91.089 L 290.750 91.353 290.333 91.014 C 289.932 90.687,289.667 90.580,289.667 90.746 M175.005 90.925 C 175.012 91.132,175.334 91.522,175.750 91.828 C 176.002 92.013,175.982 91.952,175.669 91.578 C 175.441 91.306,175.198 91.012,175.127 90.925 C 175.047 90.825,175.002 90.825,175.005 90.925 M248.672 90.925 C 248.679 91.132,249.000 91.522,249.417 91.828 C 249.668 92.013,249.648 91.952,249.336 91.578 C 249.108 91.306,248.864 91.012,248.794 90.925 C 248.714 90.825,248.669 90.825,248.672 90.925 M318.434 91.097 C 318.257 91.560,318.325 91.953,318.625 92.188 C 318.889 92.395,318.895 92.389,318.688 92.125 C 318.545 91.943,318.496 91.643,318.558 91.333 C 318.666 90.795,318.599 90.668,318.434 91.097 M196.917 91.167 C 196.860 91.258,196.556 91.333,196.240 91.333 C 195.925 91.333,195.667 91.398,195.667 91.477 C 195.667 91.638,196.410 91.551,196.917 91.329 C 197.100 91.249,197.400 91.151,197.583 91.111 C 197.831 91.057,197.802 91.034,197.468 91.019 C 197.221 91.009,196.973 91.075,196.917 91.167 M234.705 91.242 C 234.183 91.530,234.026 91.709,234.422 91.564 C 234.833 91.414,235.464 90.994,235.245 91.016 C 235.156 91.025,234.913 91.127,234.705 91.242 M270.417 91.167 C 270.295 91.364,270.458 91.364,270.917 91.167 C 271.238 91.029,271.237 91.023,270.885 91.012 C 270.684 91.005,270.473 91.075,270.417 91.167 M194.000 91.800 C 194.000 91.873,194.281 91.905,194.625 91.871 C 195.593 91.775,195.663 91.694,194.792 91.680 C 194.356 91.673,194.000 91.727,194.000 91.800 M268.000 91.800 C 268.000 91.873,268.262 91.902,268.583 91.865 C 268.904 91.828,269.167 91.768,269.167 91.732 C 269.167 91.696,268.904 91.667,268.583 91.667 C 268.262 91.667,268.000 91.727,268.000 91.800 M191.442 92.125 C 191.400 92.194,191.751 92.229,192.224 92.202 C 193.757 92.117,193.943 92.050,192.718 92.025 C 192.059 92.011,191.485 92.056,191.442 92.125 M232.333 92.144 C 232.333 92.223,232.521 92.251,232.750 92.207 C 232.979 92.164,233.167 92.099,233.167 92.064 C 233.167 92.029,232.979 92.000,232.750 92.000 C 232.521 92.000,232.333 92.065,232.333 92.144 M265.768 92.138 C 265.721 92.214,266.110 92.246,266.633 92.209 C 267.981 92.113,268.090 92.029,266.885 92.013 C 266.317 92.006,265.815 92.062,265.768 92.138 M180.375 92.458 C 182.369 92.485,185.631 92.485,187.625 92.458 C 189.619 92.432,187.987 92.410,184.000 92.410 C 180.012 92.410,178.381 92.432,180.375 92.458 M221.083 92.529 C 222.125 92.776,223.649 92.940,223.561 92.797 C 223.516 92.725,223.114 92.667,222.667 92.667 C 222.219 92.667,221.807 92.592,221.750 92.500 C 221.693 92.408,221.370 92.342,221.032 92.352 L 220.417 92.372 221.083 92.529 M231.105 92.465 C 231.060 92.538,231.281 92.567,231.595 92.530 C 231.909 92.494,232.167 92.434,232.167 92.398 C 232.167 92.273,231.186 92.335,231.105 92.465 M254.208 92.458 C 256.294 92.485,259.706 92.485,261.792 92.458 C 263.877 92.432,262.171 92.410,258.000 92.410 C 253.829 92.410,252.123 92.432,254.208 92.458 M293.181 92.393 C 293.219 92.425,293.512 92.500,293.833 92.559 C 294.244 92.634,294.343 92.618,294.167 92.502 C 293.941 92.354,293.015 92.251,293.181 92.393 M303.667 92.471 C 303.667 92.547,303.892 92.576,304.167 92.536 C 304.442 92.495,304.667 92.433,304.667 92.398 C 304.667 92.362,304.442 92.333,304.167 92.333 C 303.892 92.333,303.667 92.395,303.667 92.471 M325.417 92.500 C 325.295 92.697,325.458 92.697,325.917 92.500 C 326.238 92.362,326.237 92.356,325.885 92.345 C 325.684 92.339,325.473 92.408,325.417 92.500 M163.717 92.791 C 164.616 92.821,166.041 92.821,166.884 92.791 C 167.727 92.761,166.992 92.736,165.250 92.736 C 163.508 92.736,162.818 92.761,163.717 92.791 M229.096 92.813 C 229.047 92.893,229.361 92.924,229.795 92.882 C 230.942 92.771,231.039 92.695,230.052 92.680 C 229.576 92.673,229.146 92.732,229.096 92.813 M294.667 92.760 C 295.286 92.894,296.136 92.918,296.062 92.799 C 296.017 92.726,295.629 92.675,295.198 92.686 C 294.768 92.697,294.529 92.730,294.667 92.760 M301.763 92.813 C 301.713 92.893,302.028 92.924,302.461 92.882 C 303.609 92.771,303.706 92.695,302.718 92.680 C 302.242 92.673,301.812 92.732,301.763 92.813 M321.125 92.791 C 321.881 92.822,323.119 92.822,323.875 92.791 C 324.631 92.760,324.012 92.735,322.500 92.735 C 320.987 92.735,320.369 92.760,321.125 92.791 M340.958 92.791 C 341.806 92.821,343.194 92.821,344.042 92.791 C 344.890 92.761,344.196 92.736,342.500 92.736 C 340.804 92.736,340.110 92.761,340.958 92.791 M225.042 93.124 C 225.752 93.155,226.915 93.155,227.625 93.124 C 228.335 93.093,227.754 93.067,226.333 93.067 C 224.912 93.067,224.331 93.093,225.042 93.124 M297.708 93.124 C 298.419 93.155,299.581 93.155,300.292 93.124 C 301.002 93.093,300.421 93.067,299.000 93.067 C 297.579 93.067,296.998 93.093,297.708 93.124 M84.410 95.655 C 84.533 95.855,84.219 96.052,83.997 95.915 C 83.811 95.800,83.933 95.500,84.167 95.500 C 84.248 95.500,84.357 95.570,84.410 95.655 " stroke="none" fill="#295c00" fill-rule="evenodd"></path></g></svg>